<svg enable-background="new 0 0 220.183 110.824" height="110.824" viewBox="0 0 220.183 110.824" width="220.183" xmlns="http://www.w3.org/2000/svg"><path d="m45.8 17.357h-3.733-1.253c1.001.703 2.042 1.485 2.685 1.981.769-.683 1.536-1.34 2.301-1.981z" fill="#2c337e"/><path d="m16.988 55.76c-.344-.573-.158-1.317.414-1.659.574-.345 1.316-.16 1.659.414.84 1.397 1.763 1.664 3.184.913 13.523-7.111 26.129-14.662 26.801-21.711.195-2.046-.639-4.08-2.511-6.163l-1.1.758c-2.003-2.909-5.827-6.281-8.912-7.985l.512-1.069c-3.276-2.171-4.974-2.199-7.474-1.435-6.771 2.075-11.637 15.941-15.886 30.616-.446 1.544-.002 2.395 1.536 2.935.631.221.962.913.74 1.543-.175.498-.643.809-1.141.809-.133 0-.269-.023-.401-.069-2.747-.966-3.861-3.114-3.057-5.892 4.32-14.919 8.514-25.934 14.168-30.408h-21.148v39.773h13.727c-.305-.28-.593-.607-.857-.989-.086-.124-.173-.246-.254-.381z" fill="#2c337e"/><g fill="#00b2e4"><path d="m40.167 87.807-7.632-26.889h-6.668l-7.521 26.889-6.087-26.889h-7.887l8.386 37.047c.618 2.765 2.478 5.047 5.311 5.047v.03h1.575c.104.001.21.002.309 0h1.573l7.617-27.233 6.314 22.156h.004c.618 2.765 2.478 5.047 5.311 5.047v.03h1.575c.104.001.209.002.309 0h1.939l9.491-42.124h-7.888z"/><path d="m81.079 76.811h-14.06v-15.893h-8.133v37.047h.046c.045 2.794 2.317 5.047 5.121 5.047v.03h1.575c.104.001.209.002.309 0h1.083v-18.47h14.06v13.124c-.002.063-.013.123-.013.187 0 .028.008.054.008.083.045 2.794 2.316 5.047 5.121 5.047v.03h1.575c.104.001.21.002.309 0h1.104v-42.125h-8.104z"/><path d="m95.795 97.964h.019c.045 2.794 2.317 5.047 5.121 5.047v.03h1.575c.104.001.209.002.309 0h.937v-42.123h-7.961z"/><path d="m131.152 82.539c-.65-.669-2.506-2.282-5.565-4.84-3.27-2.767-5.23-4.572-5.88-5.412-.479-.63-.718-1.297-.718-2.005 0-.706.334-1.341 1.005-1.904.669-.563 1.53-.845 2.582-.845 2.16 0 4.284 1.451 6.368 4.353l5.939-5.24c-2.218-2.578-4.277-4.353-6.179-5.327-1.901-.974-3.903-1.461-6.006-1.461-3.269 0-6.016 1.045-8.243 3.135-2.226 2.09-3.34 4.597-3.34 7.517 0 2.025.669 4.053 2.008 6.086s4.303 4.921 8.893 8.662c2.409 1.966 3.969 3.427 4.676 4.382.708.955 1.062 1.909 1.062 2.864 0 1.05-.469 1.976-1.406 2.777-.937.802-2.094 1.203-3.47 1.203-2.639 0-4.972-1.862-6.998-5.584l-6.741 4.066c1.587 3.15 3.494 5.46 5.719 6.93 2.227 1.47 4.84 2.204 7.841 2.204 3.841 0 6.956-1.126 9.345-3.379 2.389-2.252 3.584-5.106 3.584-8.562 0-1.776-.34-3.413-1.019-4.911s-1.831-3.068-3.457-4.709z"/><path d="m139.12 68.821h7.474v29.143h.017c.045 2.794 2.317 5.047 5.121 5.047v.03h2.995v-34.22h7.674v-7.904h-23.281z"/><path d="m174.679 60.918h-8.018v37.047h.017c.045 2.794 2.316 5.047 5.121 5.047v.03h14.563v-7.645h-11.683z"/></g><g fill="#2c337e"><path d="m212.236 38.377c-.107.396-.204.749-.285 1.021-.682 2.285-1.656 6.056-1.666 6.094-.113.346-.388 1.132-1.105 1.075-.855-.068-1.02-1.074-1.38-3.278-.052-.318-.118-.72-.189-1.108-.831 2.47-1.372 3.216-2.168 3.14-1.019-.108-1.149-1.499-1.366-3.802-.04-.419-.079-.836-.123-1.218-.262-2.232-.478-3.582-.644-4.397-.27 1.023-.583 2.529-.873 3.919-.536 2.574-1.203 5.779-2.084 8.823-.148.512-.539.667-.833.636-.779-.069-.818-.447-1.295-5.07-.069-.669-.152-1.475-.238-2.228-.403 1.282-.72 1.918-1.363 2-.176.022-.623.019-.94-.51-.382-.638-.77-2.573-1.363-5.685-.097-.506-.204-1.07-.312-1.618-.312 1.917-.685 4.522-1.031 6.939-.524 3.657-1.019 7.112-1.348 8.649-.075.348-.27 1.26-1.028 1.26-.014 0-.028 0-.042-.001-1.115-.049-1.465-1.275-3.369-16.513l-.095-.76c-.478-3.824-.996-5.013-1.229-5.37-.299.388-1.077 1.838-1.951 6.988-1.327 7.821-2.037 8.451-2.889 8.451-.003 0-.007 0-.01 0-1.025-.006-1.25-1.43-1.467-2.806l-.032-.198c-.332-2.03-.691-3.578-.983-4.563-.122.479-.257 1.032-.407 1.646-.536 2.196-1.27 5.203-2.205 8.293-.123.406-.448 1.478-1.326 1.387-.757-.087-1.699-.193-2.638-14.041l-.074-1.166c-.057-.924-.147-2.402-.266-3.628-.385 1.445-.856 3.391-1.316 5.294-.589 2.436-1.199 4.953-1.619 6.371-.202.682-.665.756-.854.757-.001 0-.002 0-.003 0-.731 0-.958-.753-1.371-2.118-.023-.076-.049-.162-.076-.251-.333.745-.692 1.38-1.343 1.423-.233.023-.668-.044-1.008-.61-.211-.352-.411-.76-.597-1.141-.026-.055-.055-.112-.084-.173-.862 2.458-2.898 8.473-3.54 11.469-.06.278-.253 1.14-1.002 1.094-1.067-.046-1.52-.989-3.952-20.451l-.091-.731c-.34-2.717-.643-3.951-.844-4.512-.678 1.421-1.635 5.734-2.075 7.716-1.656 7.466-3.439 8.947-5.781 8.927-.56-.005-1.474-.002-2.46.001-.673.002-1.37.004-2.019.004.846 1.362 1.293 2.912 1.293 4.675 0 2.647-.972 4.856-2.916 6.626-.998.909-2.174 1.581-3.521 2.023h77.52v-22.689l-.471.166c-.424.718-.994 2.813-1.253 3.769z"/><path d="m213.946 22.414c-.045-2.794-2.316-5.047-5.121-5.047v-.011h-88.303c1.706.713 2.906 2.395 2.906 4.36 0 .385-.059.755-.146 1.113 0 .01.004.016.004.027-.05 2.07-3.164 7.815-4.582 9.131-.923.857-1.7.291-1.311-.624.294-.693.893-3.154 1.167-4.938-2.541-.078-4.581-2.15-4.581-4.71 0-1.964 1.2-3.647 2.906-4.36h-19.567c2.063 2.825 3.983 6.081 5.737 9.818.645-.115 1.305-.185 1.982-.185 6.244 0 11.325 5.08 11.325 11.326 0 6.244-5.08 11.325-11.325 11.325-6.246 0-11.326-5.08-11.326-11.325 0-4.271 2.377-7.994 5.876-9.923-2.082-4.378-4.375-8.061-6.872-11.036h-8.425v32.71h11.005v7.064h32.633c-2.431-.771-4.498-2.249-6.186-4.46l4.6-5.01c.876 1.022 1.903 1.848 3.08 2.478s2.222.945 3.135.945c.986 0 1.779-.237 2.382-.712.602-.475.903-1.022.903-1.643 0-1.15-1.086-2.272-3.258-3.368l-2.519-1.259c-4.819-2.427-7.228-5.467-7.228-9.118 0-2.355.908-4.367 2.724-6.037s4.139-2.505 6.968-2.505c1.935 0 3.756.424 5.463 1.273 1.706.848 3.152 2.067 4.34 3.655l-4.627 4.627c-1.88-1.861-3.587-2.792-5.12-2.792-.84 0-1.497.178-1.972.534s-.712.799-.712 1.328c0 .401.151.771.452 1.108.302.338 1.045.799 2.232 1.383l2.738 1.369c2.281 1.126 3.987 2.269 5.138 3.43.878.008 2.048.004 3.14-.001.995-.003 1.917-.006 2.48 0 .99-.006 2.618.024 4.353-7.794 1.671-7.534 2.328-9.27 3.578-9.195.95.045 1.55 1.005 2.19 6.126l.091.731c.684 5.475 1.737 13.902 2.5 17.613 1.038-3.875 3.093-9.779 3.491-10.873.229-.632.618-.783.903-.798.736-.037 1.068.677 1.55 1.664.083.171.168.347.257.52.079-.169.156-.349.216-.488.19-.443.355-.826.557-1.09.2-.261.5-.383.81-.327.597.108.82.706 1.178 1.882.349-1.344.751-3.007 1.145-4.633.751-3.103 1.46-6.033 1.894-7.256.242-.683.611-.986 1.097-.926.893.126 1.095 1.074 1.444 6.768l.073 1.157c.435 6.413.917 10.092 1.3 11.776.846-2.856 1.519-5.613 2.018-7.66.322-1.318.576-2.359.763-2.963.255-.819.789-.864 1.009-.857.472.033 1.351.095 2.453 6.848l.033.205c.025.159.073.46.133.77.301-.936.757-2.783 1.375-6.432 1.417-8.343 2.775-8.32 3.419-8.302 1.072.023 1.929 1.18 2.625 6.746l.095.761c.603 4.826 1.315 10.53 1.885 13.5.298-1.797.67-4.392 1.032-6.923.775-5.415 1.309-9.034 1.643-9.953.162-.446.543-.581.81-.558.755.06.875.562 1.745 5.124.242 1.271.568 2.979.84 4.104.104-.324.203-.662.281-.928.298-1.016.479-1.605.722-1.923l.299-.391.522.109c.657.185.74.55 1.258 5.573.035.345.074.718.114 1.093.484-1.993.891-3.946 1.241-5.628 1.036-4.978 1.311-6.154 2.371-6.104.866.038 1.29.655 2 6.71.046.392.086.819.127 1.25.047.499.112 1.187.192 1.747.198-.463.464-1.178.811-2.278.141-.444.436-1.383 1.229-1.315.914.065 1.103 1.22 1.479 3.519.023.146.049.304.077.467.347-1.31.853-3.18 1.257-4.537.079-.263.171-.604.275-.987.91-3.348 1.457-4.929 2.539-4.969.212-.018.405.057.584.182v-10.797z"/><path d="m96.149 38.316c0 4.901 3.988 8.887 8.888 8.887s8.887-3.986 8.887-8.887-3.986-8.888-8.887-8.888-8.888 3.988-8.888 8.888zm8.887-6.997c3.864 0 6.997 3.132 6.997 6.997 0 3.864-3.133 6.997-6.997 6.997s-6.997-3.132-6.997-6.997c.001-3.864 3.133-6.997 6.997-6.997z"/></g><path d="m190.967 97.568c-.006.105-.021.207-.021.314 0 .028.008.054.008.083.045 2.794 2.316 5.047 5.121 5.047v.03h17.886v-7.875h-15.034v-11.082h15.034v-7.704h-15.034v-7.617h15.034v-7.847h-22.995z" fill="#00b2e4"/><path d="m58.79 39.142v17.988h15.848 1.985 3.554c-2.034-.658-3.514-2.532-3.55-4.776h-.004v-.04c0-.015-.004-.028-.004-.043 0-.022.004-.042.004-.064v-34.85h-5.457v7.11h-12.376v7.31h12.375v7.366h-12.375z" fill="#2c337e"/><path d="m26.058 56.141c-.609.327-1.235.659-1.859.989h12.48 12.533 1.967 3.572c-2.034-.658-3.514-2.532-3.55-4.776h-.022v-16.919c-1.797 6.764-11.298 13.277-25.121 20.706z" fill="#2c337e"/><path d="m49.42 25.567-.881.607c1.333 1.535 2.207 3.082 2.638 4.657v-11.231c0-.006-.001-.011-.001-.017 0-.79.216-1.786.517-2.213-1.79 1.329-3.6 2.79-5.431 4.399 1.163 1.17 2.224 2.44 3.158 3.798z" fill="#2c337e"/><path d="m93.711 38.316c0 6.244 5.08 11.325 11.326 11.325 6.244 0 11.325-5.08 11.325-11.325 0-6.246-5.08-11.326-11.325-11.326-.677 0-1.337.07-1.982.185-1.754-3.737-3.674-6.993-5.737-9.818-.239-.327-.471-.674-.715-.989-4.877-6.321-10.567-10.178-17.016-11.477-9.64-1.943-20.815 2.017-32.593 11.477-.397.319-.795.656-1.193.989-.765.642-1.532 1.299-2.301 1.981-.642-.496-1.683-1.277-2.685-1.981-.728-.511-1.436-.983-1.951-1.268l-.696 1.26c-1.051-.622-.948-.492-1.949-.982-2.607-1.276-5.045-1.568-7.367-.859-.655.201-1.284.506-1.902.859-.488.279-.963.619-1.43.989-5.655 4.474-9.85 15.49-14.17 30.409-.805 2.778.31 4.926 3.057 5.892.132.046.268.069.401.069.499 0 .967-.312 1.141-.809.221-.63-.109-1.321-.74-1.543-1.538-.54-1.982-1.391-1.536-2.935 4.249-14.675 9.115-28.541 15.886-30.616 2.501-.764 4.199-.736 7.474 1.435l-.512 1.069c3.085 1.703 6.909 5.076 8.912 7.985l1.1-.758c1.872 2.083 2.706 4.117 2.511 6.163-.672 7.049-13.278 14.6-26.801 21.711-1.421.751-2.344.484-3.184-.913-.343-.574-1.086-.759-1.659-.414-.573.343-.758 1.087-.414 1.659.081.135.168.256.254.381.264.382.552.709.857.989.804.739 1.74 1.124 2.763 1.124.794 0 1.638-.225 2.509-.683.282-.148.55-.293.827-.44.624-.331 1.25-.662 1.859-.989 13.823-7.429 23.324-13.942 25.12-20.706.131-.495.23-.991.278-1.489.1-1.054.003-2.091-.278-3.117-.431-1.575-1.305-3.122-2.638-4.657l.881-.607c-.935-1.357-1.995-2.628-3.157-3.798 1.831-1.608 3.641-3.07 5.431-4.399.459-.341.918-.679 1.375-1.002 9.453-6.686 18.251-9.414 25.795-7.891 4.778.962 9.121 3.606 12.996 7.891.288.318.572.653.854.989 2.497 2.975 4.79 6.659 6.872 11.036-3.496 1.93-5.873 5.654-5.873 9.924zm11.326-8.888c4.901 0 8.887 3.988 8.887 8.888s-3.986 8.887-8.887 8.887-8.888-3.986-8.888-8.887 3.987-8.888 8.888-8.888z" fill="#f05224"/><path d="m210.839 37.997c-.104.383-.197.725-.275.987-.405 1.357-.91 3.228-1.257 4.537-.027-.163-.053-.321-.077-.467-.376-2.299-.565-3.453-1.479-3.519-.792-.067-1.088.871-1.229 1.315-.347 1.101-.613 1.815-.811 2.278-.081-.561-.146-1.248-.192-1.747-.041-.431-.081-.858-.127-1.25-.71-6.055-1.134-6.672-2-6.71-1.06-.05-1.335 1.127-2.371 6.104-.35 1.682-.757 3.635-1.241 5.628-.04-.375-.079-.748-.114-1.093-.519-5.023-.601-5.389-1.258-5.573l-.522-.109-.299.391c-.243.317-.424.907-.722 1.923-.079.266-.178.604-.281.928-.272-1.124-.598-2.832-.84-4.104-.87-4.562-.99-5.064-1.745-5.124-.267-.023-.648.111-.81.558-.334.919-.867 4.538-1.643 9.953-.362 2.531-.734 5.126-1.032 6.923-.57-2.97-1.283-8.674-1.885-13.5l-.095-.761c-.696-5.566-1.553-6.723-2.625-6.746-.644-.019-2.002-.041-3.419 8.302-.619 3.648-1.075 5.496-1.375 6.432-.06-.31-.107-.61-.133-.77l-.033-.205c-1.103-6.753-1.981-6.814-2.453-6.848-.22-.007-.754.038-1.009.857-.188.604-.441 1.645-.763 2.963-.499 2.047-1.172 4.804-2.018 7.66-.382-1.685-.865-5.363-1.3-11.776l-.073-1.157c-.349-5.693-.551-6.642-1.444-6.768-.486-.061-.855.243-1.097.926-.434 1.223-1.143 4.153-1.894 7.256-.393 1.626-.795 3.289-1.145 4.633-.358-1.176-.581-1.773-1.178-1.882-.309-.056-.61.066-.81.327-.202.264-.367.646-.557 1.09-.06.14-.137.319-.216.488-.088-.173-.174-.349-.257-.52-.481-.987-.814-1.701-1.55-1.664-.286.015-.674.166-.903.798-.397 1.094-2.453 6.998-3.491 10.873-.763-3.711-1.815-12.139-2.5-17.613l-.091-.731c-.64-5.121-1.24-6.081-2.19-6.126-1.25-.074-1.907 1.661-3.578 9.195-1.735 7.818-3.363 7.788-4.353 7.794-.563-.006-1.486-.003-2.48 0-1.091.005-2.262.009-3.14.001-.036 0 .517.485 1.126 1.451.648 0 1.346-.002 2.019-.004.986-.003 1.901-.006 2.46-.001 2.342.021 4.125-1.461 5.781-8.927.44-1.981 1.396-6.295 2.075-7.716.201.561.504 1.795.844 4.512l.091.731c2.432 19.462 2.885 20.405 3.952 20.451.75.046.942-.815 1.002-1.094.642-2.996 2.678-9.011 3.54-11.469.029.061.058.118.084.173.186.381.386.789.597 1.141.34.566.775.634 1.008.61.651-.043 1.01-.678 1.343-1.423.027.089.053.175.076.251.412 1.365.639 2.118 1.371 2.118h.003c.189-.001.652-.075.854-.757.42-1.418 1.029-3.936 1.619-6.371.46-1.903.931-3.849 1.316-5.294.119 1.226.209 2.704.266 3.628l.074 1.166c.939 13.848 1.881 13.954 2.638 14.041.877.091 1.203-.98 1.326-1.387.936-3.09 1.669-6.097 2.205-8.293.15-.614.285-1.167.407-1.646.292.985.651 2.533.983 4.563l.032.198c.217 1.376.442 2.8 1.467 2.806h.01c.852 0 1.562-.63 2.889-8.451.874-5.15 1.652-6.601 1.951-6.988.233.357.75 1.546 1.229 5.37l.095.76c1.904 15.237 2.254 16.464 3.369 16.513.015.001.028.001.042.001.758 0 .954-.912 1.028-1.26.329-1.537.824-4.992 1.348-8.649.346-2.417.719-5.022 1.031-6.939.108.548.215 1.112.312 1.618.593 3.111.981 5.047 1.363 5.685.317.528.764.532.94.51.643-.082.959-.718 1.363-2 .086.753.169 1.559.238 2.228.477 4.623.516 5.001 1.295 5.07.294.031.685-.124.833-.636.881-3.044 1.548-6.249 2.084-8.823.289-1.39.603-2.896.873-3.919.166.815.382 2.165.644 4.397.044.382.083.799.123 1.218.217 2.303.347 3.693 1.366 3.802.797.076 1.337-.67 2.168-3.14.071.389.137.79.189 1.108.36 2.204.525 3.21 1.38 3.278.717.057.992-.729 1.105-1.075.01-.038.984-3.809 1.666-6.094.081-.272.177-.625.285-1.021.26-.956.829-3.051 1.255-3.769l.471-.166s0-.362 0-1.232c-.18-.124-.372-.2-.584-.182-1.083.043-1.631 1.624-2.54 4.971z" fill="#f05224"/></svg>